PathFileType	4	(X/Y/Z)	C:\Github\BTS_project\Data\sports2d_results\test4 Exam_2026-03-06_143128_tvc2_Sports2D\test4 Exam_2026-03-06_143128_tvc2_Sports2D_m_person00.trc
DataRate	CameraRate	NumFrames	NumMarkers	Units	OrigDataRate	OrigDataStartFrame	OrigNumFrames
30.0	30.0	8	22	m	30.0	0	321
Frame#	Time	Hip			RHip			RKnee			RAnkle			RBigToe			RSmallToe			RHeel			LHip			LKnee			LAnkle			LBigToe			LSmallToe			LHeel			Neck			Head			Nose			RShoulder			RElbow			RWrist			LShoulder			LElbow			LWrist			
		X1	Y1	Z1	X2	Y2	Z2	X3	Y3	Z3	X4	Y4	Z4	X5	Y5	Z5	X6	Y6	Z6	X7	Y7	Z7	X8	Y8	Z8	X9	Y9	Z9	X10	Y10	Z10	X11	Y11	Z11	X12	Y12	Z12	X13	Y13	Z13	X14	Y14	Z14	X15	Y15	Z15	X16	Y16	Z16	X17	Y17	Z17	X18	Y18	Z18	X19	Y19	Z19	X20	Y20	Z20	X21	Y21	Z21	X22	Y22	Z22
0	0.0	2.2067433360749273	0.5355725747216251	0.0301	2.1358808508152247	0.591321717269743	0.0301	1.8859954001120045	0.35592748191435747	0.129	1.6683521213650756	0.12155484210355272	0.023	1.6218370315136397	0.06173525674444521	0.2179	1.5935247448945284	0.10416874645322247	0.1804	1.658655354796202	0.07751280286892469	-0.0119	2.259217198735707	0.458383040287333	0.0301	2.0428654238170885	0.21142523775600675	0.129	1.8255995200513977	0.03499696863958546	0.023	1.7409976960411706	-0.016784357493454305	0.2179	1.7847256630908388	-0.045954469667445506	0.1804	1.792513446621212	0.01926356974110579	-0.0119	2.579948379304396	0.872468404926091	0.0008	2.742063104410091	1.0433608167790764	0.0655	2.629977866239492	0.9367993552709915	0.1076	2.414038708185651	0.9405967636097798	-0.01275	2.21114258006002	0.8342497788508884	0.0702	2.0286610196371497	0.7220577431141527	0.1076	2.6432310486096227	0.6884672251031857	-0.01275	2.4966340207057023	0.500234626977812	0.0702	2.3461776736019853	0.35691867426935336	0.1076
1	0.033437499999999995	2.2079755847704066	0.535584480660733	0.0301	2.137318345650513	0.5933532542668702	0.0301	1.8856242776921328	0.35677860706310094	0.129	1.6695191829505853	0.12159727680836342	0.023	1.6230884409901971	0.05958624726942182	0.2179	1.5938947552376819	0.10330214475322413	0.1804	1.6575399728686135	0.07809365977896128	-0.0119	2.259959299190256	0.45869485267278504	0.0301	2.042078588098692	0.21011085378932043	0.129	1.8241602277008924	0.03313135655802487	0.023	1.7374097959619168	-0.015699970006311764	0.2179	1.782072977610472	-0.0457997167358872	0.1804	1.7912136346026186	0.017526689375634213	-0.0119	2.5798710533662277	0.871677519834515	0.0008	2.74192624356436	1.0440596636594706	0.0655	2.629782499640731	0.935630641101061	0.1076	2.41348308507171	0.9406495410352468	-0.01275	2.2102013882840694	0.8337470374317562	0.0702	2.0290410546807447	0.7204238743888836	0.1076	2.6442316595202926	0.6890373872002575	-0.01275	2.4966832585806373	0.5004826704235649	0.0702	2.3455889433082473	0.35634147619173834	0.1076
2	0.06687499999999999	2.20962479302579	0.534663769784386	0.0301	2.1393519869251314	0.5949473917306105	0.0301	1.88495708976843	0.35763329342878214	0.129	1.6694024417253905	0.12100572033389588	0.023	1.6240337635884021	0.057797911098556705	0.2179	1.5938464931355367	0.10273318121106467	0.1804	1.6563812431608536	0.07849314928502599	-0.0119	2.260678106257991	0.4591082113067263	0.0301	2.0413732466639374	0.20840815085013512	0.129	1.8223823713819984	0.030438957065828706	0.023	1.7348437599483926	-0.01590769533443985	0.2179	1.7789191143807745	-0.046425831957834715	0.1804	1.7902240592426892	0.015270809304257334	-0.0119	2.5796246954165816	0.8708596533322033	0.0008	2.74206305226037	1.0444717890912774	0.0655	2.6297145442645333	0.9348732155233039	0.1076	2.413443953314977	0.9400151345917817	-0.01275	2.2101936838606395	0.8330308120159727	0.0702	2.030195316829661	0.7185375625624107	0.1076	2.6451569754794906	0.6900820951090978	-0.01275	2.4968969830499255	0.5007769889106805	0.0702	2.344590194392219	0.35619162666871224	0.1076
3	0.10031249999999999	2.2107434698693575	0.5327797079759784	0.0301	2.141430175845822	0.5952500240169342	0.0301	1.8843012672843489	0.357799323186879	0.129	1.66796144263647	0.11992544957762696	0.023	1.6242237932138588	0.057714770048653524	0.2179	1.5932370955255455	0.10283781698340282	0.1804	1.6559235992567285	0.07829098382193417	-0.0119	2.261359252629221	0.4592187784840111	0.0301	2.0408717752357437	0.20695840739645185	0.129	1.8209503245891818	0.028038188417020892	0.023	1.735072642017506	-0.018008204285043544	0.2179	1.777005153007355	-0.04836219386335598	0.1804	1.7902927886405073	0.013687023966345685	-0.0119	2.5793739868536005	0.8699504603233725	0.0008	2.742367765787006	1.0443244195801278	0.0655	2.6296826937719047	0.9348976374311351	0.1076	2.4141019620982336	0.938676976051527	-0.01275	2.211044294505198	0.832005529181846	0.0702	2.0319757255517374	0.7171100267693836	0.1076	2.645660683071859	0.6912522965306825	-0.01275	2.4974691292980866	0.5006169163091183	0.0702	2.3435107579945607	0.3566172668364369	0.1076
4	0.13374999999999998	2.2103693336851906	0.5311697455226868	0.0301	2.1427398485888536	0.5946205874842526	0.0301	1.8841333287263915	0.3569847754132919	0.129	1.666966097674108	0.11945548677345684	0.023	1.6238752677291854	0.059376011355378705	0.2179	1.5924953345730395	0.10339463165791841	0.1804	1.6561506455662018	0.07785058298219305	-0.0119	2.2621777361425166	0.4587587417708421	0.0301	2.040496289950417	0.20618409253092834	0.129	1.8210838682343258	0.027581114870906663	0.023	1.7368927129913931	-0.020260978973552096	0.2179	1.7778709340953767	-0.05047686677690706	0.1804	1.7922191360771444	0.014538128851604867	-0.0119	2.579534659654713	0.8689429479188165	0.0008	2.7425488428154643	1.0438053463405257	0.0655	2.6290070128245104	0.9351874467465883	0.1076	2.4148753554695754	0.9376541826155445	-0.01275	2.2116063761077576	0.8309496960202947	0.0702	2.033558983531915	0.7166538190850975	0.1076	2.6457118352219746	0.6919521718461671	-0.01275	2.498076245738032	0.49962667242360875	0.0702	2.3429520642757407	0.3571648707867116	0.1076
5	0.1671875	2.209326986748455	0.5308440065702744	0.0301	2.143006671610037	0.5942981750862277	0.0301	1.8844996606291802	0.35567824725705116	0.129	1.6676723500277753	0.12025970311744243	0.023	1.623822902716215	0.06053753578671929	0.2179	1.5921392359708753	0.10357618149694552	0.1804	1.6558647001934992	0.07804005987444466	-0.0119	2.263072667848316	0.4579368230562875	0.0301	2.0402444989567337	0.20565291054257953	0.129	1.822847147956313	0.028756881222081115	0.023	1.7372742825692644	-0.02039776118626266	0.2179	1.7801395357016416	-0.05088153125712229	0.1804	1.7951490071136758	0.017040290832352777	-0.0119	2.580411758699636	0.8682173878507407	0.0008	2.7425622648217542	1.043290943565796	0.0655	2.6274979422970097	0.9347654710808	0.1076	2.415242742523514	0.9378106513118921	-0.01275	2.2116077341385822	0.8301960698219523	0.0702	2.0342433253008183	0.716696626306673	0.1076	2.6456305380207663	0.6921704989095533	-0.01275	2.4980287477366936	0.49823834047362053	0.0702	2.3428727189048986	0.3576525469758843	0.1076
6	0.20062499999999997	2.208907598103939	0.5313581960196767	0.0301	2.14247954855567	0.5944778861944467	0.0301	1.884935139105878	0.35415061919357504	0.129	1.66912865407717	0.12145808306275468	0.023	1.624473508995501	0.06006606213790614	0.2179	1.5920864582455219	0.10297888281745914	0.1804	1.6547622831978681	0.0786679339141138	-0.0119	2.2636206274915103	0.4569085707721962	0.0301	2.040240007852332	0.2052119075095978	0.129	1.8242899472762883	0.02959505515960734	0.023	1.736753693605123	-0.019338771793394348	0.2179	1.7811857607198698	-0.05004788856599594	0.1804	1.7961761675057208	0.01788141693787389	-0.0119	2.5816879504936523	0.8681061104891278	0.0008	2.7425206366520665	1.042909886021577	0.0655	2.626268367077596	0.9335149146894578	0.1076	2.415678846039764	0.9383030212215361	-0.01275	2.2121175028574203	0.8293204250273966	0.0702	2.033972198864644	0.7165964804254237	0.1076	2.64562001391609	0.6921579780447886	-0.01275	2.4974712194069317	0.4972715479553242	0.0702	2.342567468482654	0.35855410412286587	0.1076
7	0.23406249999999995	2.208810843112521	0.5319891228155227	0.0301	2.1420324300801097	0.5947321613321663	0.0301	1.8849305597910366	0.3529144477825605	0.129	1.6700105819580835	0.12191305798411442	0.023	1.6252305842957537	0.05960395714873104	0.2179	1.5920354746890828	0.10206813095079528	0.1804	1.6539515819429929	0.07892063444921268	-0.0119	2.2636823802547563	0.45612517176303274	0.0301	2.040354015054181	0.20518967730071985	0.129	1.8241610975179852	0.029647008918223465	0.023	1.7376926348571533	-0.019481950992477414	0.2179	1.7805301962488456	-0.049947563610610944	0.1804	1.7942161261580643	0.015937450343232414	-0.0119	2.5825589143753103	0.8683580815969829	0.0008	2.7425143483339065	1.0427628264636042	0.0655	2.626006069322319	0.9321224518906472	0.1076	2.4167773465565534	0.9376815895352826	-0.01275	2.2134049887897156	0.8279731947991926	0.0702	2.0332987302962984	0.7162672610906102	0.1076	2.6457494544165034	0.6919128022125278	-0.01275	2.4971273328315506	0.49724301841794855	0.0702	2.3417879795551206	0.3597406362802166	0.1076
